<?xml version="1.0" encoding="utf-8" ?>
<svg baseProfile="full" height="250px" version="1.1" width="800px" xmlns="http://www.w3.org/2000/svg" xmlns:ev="http://www.w3.org/2001/xml-events" xmlns:xlink="http://www.w3.org/1999/xlink"><defs /><rect fill="#ffffff" height="100%" width="100%" x="0" y="0" /><text fill="#334155" font-family="sans-serif" font-size="20px" font-weight="bold" x="20" y="30">Step 2</text><text fill="#16a34a" font-family="sans-serif" font-size="14px" text-anchor="middle" x="275.0" y="185">prev</text><line stroke="#16a34a" stroke-width="2" x1="275.0" x2="275.0" y1="170" y2="155" /><rect fill="#16a34a" height="50" rx="5" ry="5" stroke="#475569" stroke-width="1" width="50" x="250.0" y="100" /><text fill="#ffffff" font-family="sans-serif" font-size="16px" text-anchor="middle" x="275.0" y="130.0">1</text><text fill="#f59e0b" font-family="sans-serif" font-size="14px" text-anchor="middle" x="335.0" y="185">curr</text><line stroke="#f59e0b" stroke-width="2" x1="335.0" x2="335.0" y1="170" y2="155" /><rect fill="#f59e0b" height="50" rx="5" ry="5" stroke="#475569" stroke-width="1" width="50" x="310.0" y="100" /><text fill="#ffffff" font-family="sans-serif" font-size="16px" text-anchor="middle" x="335.0" y="130.0">3</text><rect fill="#f8fafc" height="50" rx="5" ry="5" stroke="#475569" stroke-width="1" width="50" x="370.0" y="100" /><text fill="#334155" font-family="sans-serif" font-size="16px" text-anchor="middle" x="395.0" y="130.0">5</text><rect fill="#f8fafc" height="50" rx="5" ry="5" stroke="#475569" stroke-width="1" width="50" x="430.0" y="100" /><text fill="#334155" font-family="sans-serif" font-size="16px" text-anchor="middle" x="455.0" y="130.0">7</text><rect fill="#f8fafc" height="50" rx="5" ry="5" stroke="#475569" stroke-width="1" width="50" x="490.0" y="100" /><text fill="#334155" font-family="sans-serif" font-size="16px" text-anchor="middle" x="515.0" y="130.0">9</text></svg>